<svg xmlns="http://www.w3.org/2000/svg" viewBox="0 0 824 308.62"><title>Asset 1</title><g id="Layer_2" data-name="Layer 2"><g id="Layer_1-2" data-name="Layer 1"><path d="M0,181.62a91.35,91.35,0,0,1,9.67,1.72c43.07,12.29,86,25.23,129.2,36.86,30.4,8.17,61.16,15.17,92,21.59,21.54,4.49,43.4,7.75,65.25,10.36a547,547,0,0,0,57,3.92c26.83.36,50.57-8,70.64-26.92,16.1-15.19,29.17-32.62,41.72-50.54,17.91-25.56,34.87-51.8,53.31-77,13.39-18.28,27-36.49,44.42-51.53C588.88,28,617.87,12.89,650.88,5.19A195.85,195.85,0,0,1,709.27.48c35,2.44,67.68,12.82,97,32.56,6.17,4.15,11.84,9,17.74,13.58v262H0Z"/></g></g></svg>