<svg xmlns="http://www.w3.org/2000/svg" viewBox="0 0 297.84 426.3"><defs><style>.cls-1{fill:#3b3b3b;}</style></defs><title>Countdown TImer</title><g id="Layer_2" data-name="Layer 2"><g id="Layer_1-2" data-name="Layer 1"><path class="cls-1" d="M0,32V0H297.84V31.88H284.52c-11.38,70-34.74,133.27-88.71,181.32,53.9,47.84,77.24,111.14,88.69,181h13.24V426.3H.12V394.35c3.48,0,6.61-.17,9.72,0,2.93.2,4.06-.87,4.42-3.83A311.81,311.81,0,0,1,66.47,251.93a156,156,0,0,1,34.14-36.85,16.45,16.45,0,0,1,2.12-1.18c-6.9-6.55-13.47-12.16-19.3-18.46-21.67-23.39-36.56-51-48.33-80.35C24.81,89.38,17.25,62.92,14.18,35.3c-.28-2.51-1.35-3.44-3.84-3.31C7.05,32.15,3.75,32,0,32Zm46.59.24c.28,2.85.39,5.36.79,7.81,5.41,33.12,16.42,64.29,32.18,93.86,1.41,2.63,3.06,3.29,5.83,3.28q63.61-.14,127.24,0c3.3,0,4.94-1,6.49-3.93A313.12,313.12,0,0,0,246.57,61.8c2.4-9.59,3.89-19.4,5.88-29.53ZM164.44,220.38v88.44h61.88c-10.6-23-23-44.17-41-61.35C176.88,239.47,167.73,232.33,164.44,220.38ZM71,308.87h62.31V220.68c-3,8.29-7.38,15.42-14.16,20.88C106.84,251.5,97.13,263.72,89,277.15,82.77,287.29,77.24,297.82,71,308.87Z"/></g></g></svg>