<svg xmlns="http://www.w3.org/2000/svg" viewBox="0 0 511.02 511.12"><defs><style>.cls-1{fill:#3b3b3b;}</style></defs><title>Countdown Clock</title><g id="Layer_2" data-name="Layer 2"><g id="Layer_1-2" data-name="Layer 1"><path class="cls-1" d="M237.53,511.12c-8.85-1.28-17.74-2.28-26.53-3.9C143,494.7,88.61,460.13,47.86,404.42,21.32,368.14,5.52,327.29,1.33,282.6-6.1,203.34,17.7,134.49,72.75,76.69c4.5-4.73,9.63-7.76,16.35-6.37,6,1.23,10.33,4.8,12.16,10.64,2,6.33.32,11.88-4.1,17-9.19,10.7-18.93,21.1-26.83,32.73-28.6,42.08-40.8,88.77-37.68,139.63,5.75,94,72.26,176.89,166.28,201.36,125,32.52,247.08-45.79,274.2-166C499.91,187,430,71.2,312.84,39.57c-8.94-2.42-18.16-3.88-27.29-5.52-4.39-.78-8.89-.93-14.09-1.45v5.7q0,44.67,0,89.33c0,8.2-5.9,15-13.53,16.05a16.05,16.05,0,0,1-17.78-11.2,17.22,17.22,0,0,1-.61-4.91q-.06-55.14,0-110.29C239.55,6.19,245.82,0,256.84,0,375.23-.32,480.71,84.74,505,200.33c2.28,10.85,3.37,22,5.05,32.94.22,1.45.63,2.88,1,4.32v35.94c-1.08,8-1.89,16.11-3.27,24.09-8.61,50.07-29.85,94-64.46,131.29-38.9,41.85-86.42,68.23-142.8,78.26-9,1.59-18,2.65-27,3.95Z"/><path class="cls-1" d="M135.43,134.52q26.3,19.71,52.59,39.41,38.26,28.73,76.51,57.45c8.77,6.55,12.52,14.94,9.85,25.62-2.61,10.44-9.73,16.52-20.22,18-9.08,1.3-16.56-2.1-22.14-9.54q-36.77-49.05-73.56-98.06-11.07-14.75-22.13-29.5c-.65-.86-1.16-1.81-1.74-2.72Z"/></g></g></svg>