<svg id="Layer_1" data-name="Layer 1" xmlns="http://www.w3.org/2000/svg" viewBox="0 0 375.79 374.74"><defs><style>.cls-1{fill:#3b3b3b;}</style></defs><title>Prize Cup</title><path class="cls-1" d="M444.53,283.46c2.68,39.93-5.67,75.79-30.76,106.75a139.35,139.35,0,0,1-49.52,38.68,21.27,21.27,0,0,0-10.32,10c-12.06,22.77-29.6,40.29-52.13,52.85-2.61,1.46-5.28,2.82-7.86,4.33-23.55,13.75-24.2,45.07-1,59.45,17.81,11,35.93,21.56,53.91,32.31,6.7,4,13.46,7.95,20.05,12.13,1.32.84,2.81,2.65,2.84,4,.23,11.45.13,22.91.13,35-2,.11-3.79.29-5.55.29q-107.22,0-214.45.11c-4.39,0-5.78-1.11-5.62-5.54.33-9.29.27-18.61,0-27.91-.08-3.3,1.1-5,3.87-6.66q35.63-21.09,71.07-42.48c25.88-15.58,25.74-47.37-.88-61.63s-47.1-33.76-60.65-60.66c-1-1.94-3.52-3.38-5.66-4.4-20.74-9.91-38.69-23.34-52.91-41.49-20.1-25.67-29.49-55-29.87-87.38-.06-5.15,0-10.31,0-15.46a15.38,15.38,0,0,1,.41-2.08h74.55c0-5.08.24-9.53-.07-13.95-.27-3.92,1-5.12,5-5.08,21.16.18,42.32.06,63.48.06,50.49,0,101,.09,151.47-.08,4.74,0,6.11,1.41,5.71,5.91-.37,4.09-.08,8.24-.08,12.93ZM369.88,381c18.95-16.28,30.44-35.71,35.07-59.38H369.88Zm-261-59.55c5,23.9,16.17,43.35,34.92,59.15V321.42Z" transform="translate(-69.22 -264.62)"/></svg>